<svg width="24" height="24" viewBox="0 0 24 24" fill="none" xmlns="http://www.w3.org/2000/svg">
<g clip-path="url(#clip0_63_12)">
<path d="M18.6667 20H4.00001V5.33333H12.8133L14.1467 4H4.00001C3.64638 4 3.30724 4.14048 3.0572 4.39052C2.80715 4.64057 2.66667 4.97971 2.66667 5.33333V20C2.66667 20.3536 2.80715 20.6928 3.0572 20.9428C3.30724 21.1929 3.64638 21.3333 4.00001 21.3333H18.6667C19.0203 21.3333 19.3594 21.1929 19.6095 20.9428C19.8595 20.6928 20 20.3536 20 20V10L18.6667 11.3333V20Z" fill="black"/>
<path d="M22.3533 3.89332L20.1067 1.64665C20.007 1.54667 19.8885 1.46735 19.7581 1.41322C19.6277 1.3591 19.4879 1.33124 19.3467 1.33124C19.2055 1.33124 19.0657 1.3591 18.9352 1.41322C18.8048 1.46735 18.6864 1.54667 18.5867 1.64665L9.44667 10.84L8.70667 14.0466C8.67515 14.2021 8.67846 14.3626 8.71638 14.5166C8.75429 14.6706 8.82587 14.8143 8.92596 14.9373C9.02604 15.0604 9.15215 15.1597 9.29522 15.2282C9.43828 15.2966 9.59474 15.3325 9.75334 15.3333C9.83532 15.3423 9.91803 15.3423 10 15.3333L13.2333 14.62L22.3533 5.41332C22.4533 5.31361 22.5326 5.19516 22.5868 5.06474C22.6409 4.93433 22.6688 4.79452 22.6688 4.65332C22.6688 4.51212 22.6409 4.3723 22.5868 4.24189C22.5326 4.11148 22.4533 3.99302 22.3533 3.89332ZM12.54 13.3867L10.1 13.9267L10.6667 11.5067L17.5467 4.57998L19.4267 6.45998L12.54 13.3867ZM20.18 5.70665L18.3 3.82665L19.3333 2.77332L21.2267 4.66665L20.18 5.70665Z" fill="black"/>
</g>
<defs>
<clipPath id="clip0_63_12">
<rect width="24" height="24" fill="white"/>
</clipPath>
</defs>
</svg>
