<svg width="25" height="22" viewBox="0 0 25 22" fill="none" xmlns="http://www.w3.org/2000/svg">
<path d="M24 11H17.1L14.8 14.75H10.2L7.9 11H1" stroke="#2F2C2C" stroke-width="2" stroke-linecap="round" stroke-linejoin="round"/>
<path d="M4.9675 2.3875L1 11V18.5C1 19.163 1.24232 19.7989 1.67365 20.2678C2.10499 20.7366 2.69 21 3.3 21H21.7C22.31 21 22.895 20.7366 23.3263 20.2678C23.7577 19.7989 24 19.163 24 18.5V11L20.0325 2.3875C19.8421 1.97098 19.5486 1.62046 19.1849 1.37535C18.8212 1.13024 18.4019 1.00025 17.974 1H7.026C6.5981 1.00025 6.17875 1.13024 5.8151 1.37535C5.45145 1.62046 5.15791 1.97098 4.9675 2.3875Z" stroke="#2F2C2C" stroke-width="2" stroke-linecap="round" stroke-linejoin="round"/>
</svg>
