<svg width="24" height="21" viewBox="0 0 24 21" fill="none" xmlns="http://www.w3.org/2000/svg">
<path d="M9.67254 9.88235C8.34257 9.88235 7.20403 9.39853 6.25693 8.43088C5.30982 7.46324 4.83627 6.3 4.83627 4.94118C4.83627 3.58235 5.30982 2.41912 6.25693 1.45147C7.20403 0.483824 8.34257 0 9.67254 0C11.0025 0 12.1411 0.483824 13.0882 1.45147C14.0353 2.41912 14.5088 3.58235 14.5088 4.94118C14.5088 6.3 14.0353 7.46324 13.0882 8.43088C12.1411 9.39853 11.0025 9.88235 9.67254 9.88235ZM0 19.7647V16.3059C0 15.6265 0.171285 14.9882 0.513854 14.3912C0.856423 13.7941 1.32997 13.3412 1.93451 13.0324C2.96222 12.4971 4.12091 12.0441 5.41058 11.6735C6.70025 11.3029 8.12091 11.1176 9.67254 11.1176H10.0957C10.2166 11.1176 10.3375 11.1382 10.4584 11.1794C10.2972 11.55 10.1612 11.936 10.0504 12.3375C9.93955 12.739 9.8539 13.1559 9.79345 13.5882H9.67254C8.24181 13.5882 6.95718 13.7735 5.81864 14.1441C4.6801 14.5147 3.74811 14.8853 3.02267 15.2559C2.84131 15.3588 2.69521 15.5029 2.58438 15.6882C2.47355 15.8735 2.41814 16.0794 2.41814 16.3059V17.2941H10.0353C10.1562 17.7265 10.3174 18.1537 10.5189 18.5757C10.7204 18.9978 10.9421 19.3941 11.1839 19.7647H0ZM16.927 21L16.5642 19.1471C16.3224 19.0441 16.0957 18.936 15.8841 18.8228C15.6725 18.7096 15.4559 18.5706 15.2343 18.4059L13.4811 18.9618L12.272 16.8618L13.6625 15.6265C13.6222 15.3382 13.602 15.0706 13.602 14.8235C13.602 14.5765 13.6222 14.3088 13.6625 14.0206L12.272 12.7853L13.4811 10.6853L15.2343 11.2412C15.4559 11.0765 15.6725 10.9375 15.8841 10.8243C16.0957 10.711 16.3224 10.6029 16.5642 10.5L16.927 8.64706H19.3451L19.7078 10.5C19.9496 10.6029 20.1763 10.7162 20.3879 10.8397C20.5995 10.9632 20.8161 11.1176 21.0378 11.3029L22.7909 10.6853L24 12.8471L22.6096 14.0824C22.6499 14.3294 22.67 14.5868 22.67 14.8544C22.67 15.1221 22.6499 15.3794 22.6096 15.6265L24 16.8618L22.7909 18.9618L21.0378 18.4059C20.8161 18.5706 20.5995 18.7096 20.3879 18.8228C20.1763 18.936 19.9496 19.0441 19.7078 19.1471L19.3451 21H16.927ZM18.136 17.2941C18.801 17.2941 19.3703 17.0522 19.8438 16.5684C20.3174 16.0846 20.5542 15.5029 20.5542 14.8235C20.5542 14.1441 20.3174 13.5625 19.8438 13.0787C19.3703 12.5949 18.801 12.3529 18.136 12.3529C17.471 12.3529 16.9018 12.5949 16.4282 13.0787C15.9547 13.5625 15.7179 14.1441 15.7179 14.8235C15.7179 15.5029 15.9547 16.0846 16.4282 16.5684C16.9018 17.0522 17.471 17.2941 18.136 17.2941ZM9.67254 7.41176C10.3375 7.41176 10.9068 7.16985 11.3804 6.68603C11.8539 6.20221 12.0907 5.62059 12.0907 4.94118C12.0907 4.26176 11.8539 3.68015 11.3804 3.19632C10.9068 2.7125 10.3375 2.47059 9.67254 2.47059C9.00756 2.47059 8.43829 2.7125 7.96474 3.19632C7.49118 3.68015 7.25441 4.26176 7.25441 4.94118C7.25441 5.62059 7.49118 6.20221 7.96474 6.68603C8.43829 7.16985 9.00756 7.41176 9.67254 7.41176Z" fill="#1E1C1C"/>
</svg>
