<svg width="24" height="24" viewBox="0 0 24 24" fill="none" xmlns="http://www.w3.org/2000/svg">
<g id="shopping-cart-badged" clip-path="url(#clip0_246_214)">
<path id="Vector" d="M8.88667 21.3334C9.71509 21.3334 10.3867 20.6618 10.3867 19.8334C10.3867 19.0049 9.71509 18.3334 8.88667 18.3334C8.05824 18.3334 7.38667 19.0049 7.38667 19.8334C7.38667 20.6618 8.05824 21.3334 8.88667 21.3334Z" fill="#A2A2A2"/>
<path id="Vector_2" d="M18 21.3334C18.8284 21.3334 19.5 20.6618 19.5 19.8334C19.5 19.0049 18.8284 18.3334 18 18.3334C17.1716 18.3334 16.5 19.0049 16.5 19.8334C16.5 20.6618 17.1716 21.3334 18 21.3334Z" fill="#A2A2A2"/>
<path id="Vector_3" d="M15.0467 4.66671C15.0163 4.44577 15.0007 4.22305 15 4.00004C15.0007 3.77703 15.0163 3.55431 15.0467 3.33337H7.66L8.09334 4.66671H15.0467Z" fill="#A2A2A2"/>
<path id="Vector_4" d="M20 9.00003H19.72L18.8867 12.6667H8.88666L5.84 3.02003C5.80704 2.91767 5.74982 2.8248 5.6732 2.74935C5.59658 2.67389 5.50285 2.61809 5.4 2.5867L2.66666 1.7467C2.58262 1.72087 2.49431 1.71185 2.40678 1.72015C2.31924 1.72846 2.2342 1.75392 2.15651 1.79509C1.99961 1.87823 1.88216 2.02029 1.83 2.19003C1.77784 2.35977 1.79524 2.54328 1.87838 2.70018C1.96153 2.85709 2.10359 2.97454 2.27333 3.0267L4.66666 3.76003L7.72666 13.4267L6.63333 14.32L6.54666 14.4067C6.27622 14.7184 6.12293 15.1146 6.1132 15.5271C6.10346 15.9396 6.23789 16.3426 6.49333 16.6667C6.67504 16.8877 6.90594 17.0631 7.16756 17.1788C7.42918 17.2946 7.71426 17.3475 8 17.3334H19.1267C19.3035 17.3334 19.473 17.2631 19.5981 17.1381C19.7231 17.0131 19.7933 16.8435 19.7933 16.6667C19.7933 16.4899 19.7231 16.3203 19.5981 16.1953C19.473 16.0703 19.3035 16 19.1267 16H7.89333C7.81656 15.9974 7.74177 15.975 7.67617 15.9351C7.61057 15.8951 7.55639 15.8389 7.51886 15.7719C7.48133 15.7048 7.46172 15.6293 7.46192 15.5525C7.46211 15.4757 7.48212 15.4002 7.52 15.3334L9.12666 14H19.42C19.5741 14.0038 19.7248 13.954 19.8463 13.8592C19.9679 13.7644 20.0528 13.6304 20.0867 13.48L21.1333 8.87337C20.7616 8.95861 20.3814 9.00111 20 9.00003Z" fill="#A2A2A2"/>
<path id="Vector_5" d="M20 7.33329C21.841 7.33329 23.3333 5.84091 23.3333 3.99996C23.3333 2.15901 21.841 0.666626 20 0.666626C18.1591 0.666626 16.6667 2.15901 16.6667 3.99996C16.6667 5.84091 18.1591 7.33329 20 7.33329Z" fill="#A2A2A2"/>
</g>
<defs>
<clipPath id="clip0_246_214">
<rect width="24" height="24" fill="white"/>
</clipPath>
</defs>
</svg>
