<svg width="51" height="51" viewBox="0 0 51 51" fill="none" xmlns="http://www.w3.org/2000/svg">
<g id="ic24-plus">
<path id="Icon" fill-rule="evenodd" clip-rule="evenodd" d="M33.9985 17.0775C34.5853 17.6696 34.5853 18.621 33.9985 19.2025L27.6238 25.5194L33.9985 31.9525C34.5853 32.5446 34.5853 33.496 33.9985 34.0775C33.4118 34.6589 32.4604 34.6503 31.8736 34.0581L25.4989 27.625L19.1242 33.9419C18.5374 34.5233 17.586 34.5147 16.9993 33.9225C16.4125 33.3304 16.4125 32.379 16.9993 31.7975L23.374 25.4806L16.9993 19.0475C16.4125 18.4554 16.4125 17.504 16.9993 16.9225C17.586 16.3411 18.5374 16.3497 19.1242 16.9419L25.4989 23.375L31.8736 17.0581C32.4604 16.4767 33.4118 16.4853 33.9985 17.0775Z" fill="white"/>
</g>
</svg>
