<svg width="18" height="18" viewBox="0 0 18 18" fill="none" xmlns="http://www.w3.org/2000/svg">
<g id="Dollar Coin off" clip-path="url(#clip0_166_300)">
<g id="Group">
<path id="Vector" d="M3.45528 3.936C2.19183 5.31743 1.49206 7.12498 1.49482 9C1.49482 13.1422 4.84098 16.5 8.96894 16.5C10.79 16.5027 12.549 15.8357 13.9131 14.625M15.9214 11.7585C16.2672 10.8803 16.4442 9.9443 16.4431 9C16.4431 4.85775 13.0969 1.5 8.96894 1.5C8.04888 1.5 7.16768 1.66725 6.353 1.9725" stroke="black" stroke-width="1.2" stroke-linecap="round" stroke-linejoin="round"/>
<path id="Vector_2" d="M6.72672 11.25C7.20805 11.895 8.1042 12.2625 8.96896 12.2933C9.80157 12.3233 10.6058 12.0412 10.9847 11.3947M8.96896 12.2933V13.875M7.10043 7.125C7.10043 8.01075 7.73722 8.37375 8.51005 8.625M11.2112 6.375C10.6992 5.86125 9.79784 5.50425 8.96896 5.48175V4.125M2.24225 2.25L15.6957 15.75" stroke="black" stroke-width="1.2" stroke-linecap="round" stroke-linejoin="round"/>
</g>
</g>
<defs>
<clipPath id="clip0_166_300">
<rect width="17.9379" height="18" fill="white"/>
</clipPath>
</defs>
</svg>
