<svg width="24" height="24" viewBox="0 0 24 24" fill="none" xmlns="http://www.w3.org/2000/svg">
<g id="Gold_Star">
<path id="Vector" d="M10.9596 0.392802L8.56174 2.50853H12.0006V0.000130461C11.6295 -0.00108524 11.258 0.129805 10.9596 0.392802Z" fill="#FDF0BC"/>
<path id="Vector_2" d="M13.0284 0.390362C12.7333 0.131418 12.3674 0.00133777 12.001 0.00012207V2.50852H15.4399L13.0284 0.390362Z" fill="url(#paint0_linear_31_226)"/>
<path id="Vector_3" d="M3.63554 3.86157L3.14084 7.04428L5.7751 4.80455L4.18383 2.88293C3.89868 3.12364 3.69713 3.46607 3.63554 3.86157Z" fill="#FDF0BC"/>
<path id="Vector_4" d="M5.21879 2.51255C4.82847 2.50606 4.46535 2.64506 4.1842 2.88293L5.77548 4.80455L8.40974 2.56482L5.21879 2.51255Z" fill="url(#paint1_linear_31_226)"/>
<path id="Vector_5" d="M0.225823 11.2895L1.86549 14.0499L2.46257 10.6184L0.0250634 10.1824C-0.0409231 10.5528 0.0218641 10.9462 0.225823 11.2895Z" fill="#FDF0BC"/>
<path id="Vector_6" d="M0.582542 9.22485C0.279803 9.47447 0.0898418 9.8173 0.0250549 10.1824L2.46296 10.618L3.06004 7.18652L0.582542 9.22485Z" fill="url(#paint2_linear_31_226)"/>
<path id="Vector_7" d="M2.3254 19.2005L5.33279 20.2468L3.61354 17.229L1.46957 18.4832C1.65394 18.8098 1.95148 19.0704 2.3254 19.2005Z" fill="url(#paint3_linear_31_226)"/>
<path id="Vector_8" d="M1.28918 17.3866C1.21519 17.7748 1.28718 18.1614 1.46914 18.4835L3.6131 17.2293L1.89385 14.2115L1.28918 17.3866Z" fill="url(#paint4_linear_31_226)"/>
<path id="Vector_9" d="M8.95204 23.893L11.9194 22.7361L8.68809 21.5443L7.84146 23.9016C8.18979 24.0312 8.58331 24.0369 8.95204 23.893Z" fill="url(#paint5_linear_31_226)"/>
<path id="Vector_10" d="M7.00761 23.1783C7.19717 23.5239 7.49751 23.7732 7.84144 23.9012L8.68807 21.544L5.45673 20.3522L7.00761 23.1783Z" fill="url(#paint6_linear_31_226)"/>
<path id="Vector_11" d="M17.0056 23.1718L18.5449 20.3525L15.3135 21.5443L16.1602 23.9016C16.5089 23.7739 16.814 23.5223 17.0056 23.1718Z" fill="url(#paint7_linear_31_226)"/>
<path id="Vector_12" d="M15.0624 23.8907C15.4271 24.0321 15.815 24.0272 16.1598 23.9012L15.3131 21.5439L12.0818 22.7357L15.0624 23.8907Z" fill="url(#paint8_linear_31_226)"/>
<path id="Vector_13" d="M22.7168 17.3736L22.1077 14.2115L20.3885 17.2293L22.5325 18.4835C22.7188 18.1581 22.7928 17.7667 22.7168 17.3736Z" fill="url(#paint9_linear_31_226)"/>
<path id="Vector_14" d="M21.6846 19.1899C22.0534 19.0607 22.3477 18.8041 22.5321 18.4832L20.3881 17.229L18.6689 20.2468L21.6846 19.1899Z" fill="url(#paint10_linear_31_226)"/>
<path id="Vector_15" d="M23.4139 9.21188L20.9412 7.18652L21.5383 10.618L23.9762 10.1824C23.9134 9.81203 23.7214 9.46394 23.4139 9.21188Z" fill="url(#paint11_linear_31_226)"/>
<path id="Vector_16" d="M23.7754 11.2757C23.9762 10.9365 24.039 10.5483 23.9762 10.1824L21.5383 10.618L22.1353 14.0495L23.7754 11.2757Z" fill="url(#paint12_linear_31_226)"/>
<path id="Vector_17" d="M18.7708 2.50564L15.5919 2.5644L18.2262 4.80412L19.8174 2.88251C19.5339 2.64018 19.1664 2.49835 18.7708 2.50564Z" fill="url(#paint13_linear_31_226)"/>
<path id="Vector_18" d="M20.3569 3.8514C20.2953 3.46076 20.0974 3.12279 19.8174 2.8833L18.2261 4.80492L20.8604 7.04465L20.3569 3.8514Z" fill="url(#paint14_linear_31_226)"/>
<g id="Group">
<path id="Vector_19" d="M12.0006 20.8323C16.6389 20.8323 20.3989 17.0223 20.3989 12.3224C20.3989 7.62251 16.6389 3.8125 12.0006 3.8125C7.36237 3.8125 3.60233 7.62251 3.60233 12.3224C3.60233 17.0223 7.36237 20.8323 12.0006 20.8323Z" fill="url(#paint15_radial_31_226)"/>
<path id="Vector_20" d="M12.0006 3.05237C6.94802 3.05237 2.85205 7.20237 2.85205 12.3221C2.85205 17.4418 6.94802 21.5922 12.0006 21.5922C17.0532 21.5922 21.1491 17.4418 21.1491 12.3221C21.1491 7.20237 17.0532 3.05237 12.0006 3.05237ZM12.0006 20.8312C7.36273 20.8312 3.6031 17.0216 3.6031 12.3221C3.6031 7.62259 7.36273 3.81299 12.0006 3.81299C16.6384 3.81299 20.3981 7.62259 20.3981 12.3221C20.3981 17.0216 16.6384 20.8312 12.0006 20.8312Z" fill="url(#paint16_linear_31_226)"/>
<path id="Vector_21" d="M12.0006 1.86938C6.30338 1.86938 1.68512 6.54902 1.68512 12.322C1.68512 18.0949 6.30338 22.7746 12.0006 22.7746C17.6979 22.7746 22.3161 18.0949 22.3161 12.322C22.3161 6.54902 17.6979 1.86938 12.0006 1.86938ZM12.0006 21.5877C6.95045 21.5877 2.85648 17.4393 2.85648 12.322C2.85648 7.20469 6.95045 3.05672 12.0006 3.05672C17.0508 3.05672 21.1448 7.2051 21.1448 12.3224C21.1448 17.4397 17.0508 21.5877 12.0006 21.5877Z" fill="url(#paint17_linear_31_226)"/>
</g>
<g id="Group_2">
<path id="Vector_22" d="M9.68508 16.5867C9.54511 16.5867 9.41513 16.5413 9.30036 16.4603C9.28556 16.4501 9.27556 16.44 9.26556 16.4299C9.25556 16.425 9.25037 16.4149 9.24557 16.4096C9.22557 16.3942 9.21557 16.3792 9.20078 16.3642C9.19078 16.3541 9.18558 16.344 9.17598 16.3338L9.17118 16.329C9.16118 16.3188 9.15598 16.3087 9.15119 16.2986L9.14119 16.2832C9.12119 16.2528 9.10639 16.2224 9.0912 16.192C9.0864 16.177 9.0812 16.1616 9.076 16.1466C9.0712 16.1312 9.066 16.1114 9.0612 16.096C9.05601 16.0757 9.05121 16.0506 9.04601 16.025C9.04601 16.0149 9.04121 15.9999 9.04121 15.9898C9.04121 15.9695 9.03641 15.9493 9.03641 15.929C9.03641 15.8937 9.04121 15.8581 9.04641 15.8176L9.43113 13.5499L7.80746 11.9451C7.77746 11.9148 7.74747 11.8795 7.72268 11.8438C7.69268 11.7985 7.67269 11.7628 7.65789 11.7223C7.65309 11.7073 7.64309 11.687 7.63789 11.6615C7.6227 11.6007 7.6131 11.5399 7.6131 11.4743C7.6131 11.454 7.6131 11.439 7.6131 11.4187C7.6131 11.3884 7.6179 11.358 7.6279 11.3276C7.6279 11.3227 7.63269 11.3126 7.63269 11.3073C7.63789 11.2919 7.63789 11.2769 7.64269 11.2619C7.64269 11.2571 7.64749 11.2465 7.65269 11.2315C7.65749 11.2161 7.66269 11.2011 7.67269 11.1861C7.68748 11.1558 7.70268 11.1254 7.72747 11.0901C7.73747 11.0698 7.75227 11.0548 7.76747 11.0394C7.76747 11.0394 7.76747 11.0346 7.77227 11.0346L7.85225 10.9029H7.92224C7.93223 10.8976 7.93703 10.8928 7.94703 10.8875C7.95703 10.8826 7.97702 10.8725 7.99182 10.8624C8.01182 10.8522 8.03661 10.8421 8.06661 10.832C8.0766 10.8271 8.0914 10.8218 8.1066 10.8218C8.12659 10.817 8.14659 10.8117 8.17138 10.8064L10.4193 10.4774L11.4083 8.42731C11.5183 8.19957 11.7431 8.05774 11.9926 8.05774C12.1726 8.05774 12.3473 8.13352 12.4721 8.26522C12.4921 8.29034 12.5121 8.31061 12.5269 8.33614C12.5469 8.36653 12.5669 8.39692 12.5817 8.42731L13.5859 10.4823L15.8286 10.8113C16.0786 10.8466 16.2833 11.024 16.3581 11.2668C16.3633 11.2822 16.3681 11.2919 16.3681 11.3073C16.3681 11.3122 16.3681 11.3122 16.3729 11.3174C16.3777 11.3328 16.3829 11.3478 16.3829 11.3681C16.3829 11.373 16.3829 11.373 16.3829 11.3782C16.3877 11.3985 16.3877 11.4135 16.3877 11.4337C16.3929 11.5298 16.3777 11.6311 16.3377 11.7223C16.3225 11.7628 16.3029 11.798 16.2777 11.8337L16.2725 11.8386C16.2477 11.8738 16.2177 11.9095 16.1878 11.9399L14.5641 13.5446L14.9488 15.807C14.9888 16.055 14.894 16.303 14.6889 16.455C14.6389 16.4902 14.5789 16.5259 14.5189 16.5462C14.5137 16.5462 14.5089 16.5514 14.4989 16.5514C14.4341 16.5717 14.3689 16.5818 14.3041 16.5818C14.1994 16.5818 14.0942 16.5567 13.9994 16.5061L11.9914 15.4379L9.98342 16.5061C9.89463 16.5616 9.78986 16.5867 9.68508 16.5867Z" fill="#DF771E"/>
<path id="Vector_23" d="M11.9926 8.38147V12.5675L10.6137 10.7809L11.6927 8.56909C11.7578 8.44752 11.8778 8.38147 11.9926 8.38147Z" fill="#FFFAF6"/>
<path id="Vector_24" d="M16.0538 11.3733L11.9974 12.5679L13.3759 10.7812L15.7838 11.1354C15.919 11.1605 16.0138 11.2566 16.0538 11.3733Z" fill="#FEE0AC"/>
<path id="Vector_25" d="M14.5005 16.1968L11.993 12.5675L14.221 13.4331L14.6305 15.8629C14.6601 16.0047 14.6001 16.1259 14.5005 16.1968Z" fill="#ECB76B"/>
<path id="Vector_26" d="M11.9926 12.5675V15.0731L9.83944 16.2219C9.71466 16.2875 9.58469 16.2673 9.48471 16.1968L11.9926 12.5675Z" fill="#F1A341"/>
<path id="Vector_27" d="M13.3715 10.7809L11.9926 12.5675V8.38147C12.0826 8.38147 12.1726 8.41672 12.2374 8.48764C12.2474 8.49777 12.2574 8.51277 12.2674 8.52816C12.2774 8.54356 12.2874 8.55856 12.2922 8.57355L13.3715 10.7809Z" fill="#FFE9BA"/>
<path id="Vector_28" d="M16.0438 11.6011C16.0338 11.6213 16.0238 11.6416 16.0138 11.6618C15.9986 11.6821 15.9838 11.6971 15.969 11.7174L14.2257 13.4384L11.9978 12.5728L16.0542 11.3782C16.0542 11.383 16.059 11.3883 16.059 11.3936C16.059 11.3988 16.0642 11.4037 16.0642 11.4138C16.0642 11.4191 16.0642 11.4191 16.0642 11.4191C16.0642 11.424 16.0642 11.4292 16.0642 11.4341C16.0642 11.4442 16.0642 11.4495 16.0642 11.4592C16.069 11.5046 16.0638 11.5553 16.0438 11.6011Z" fill="#E49632"/>
<path id="Vector_29" d="M14.5005 16.1968C14.4757 16.217 14.4457 16.232 14.4105 16.2422C14.4057 16.2422 14.4057 16.2422 14.4005 16.247C14.3205 16.2722 14.2306 16.2673 14.1458 16.2219L11.9926 15.0731V12.5675L14.5005 16.1968Z" fill="#E29136"/>
<path id="Vector_30" d="M11.9926 12.5675L9.48513 16.1968C9.48033 16.1915 9.47514 16.1866 9.47034 16.1814C9.46554 16.1765 9.46034 16.1712 9.45514 16.166C9.45034 16.1611 9.44514 16.1558 9.43514 16.1457C9.42994 16.1409 9.42515 16.1356 9.41995 16.1303C9.41475 16.1251 9.41515 16.1255 9.41515 16.1202C9.41035 16.1153 9.40515 16.1101 9.40515 16.1048C9.39515 16.0898 9.38515 16.0744 9.38036 16.0594C9.37556 16.0545 9.37556 16.044 9.37036 16.0343C9.36556 16.0241 9.36556 16.0189 9.36036 16.0092C9.35556 15.999 9.35556 15.984 9.35556 15.9739C9.35556 15.969 9.35556 15.9585 9.35556 15.9536C9.35556 15.9435 9.35556 15.9334 9.35556 15.9232C9.35556 15.903 9.35556 15.8827 9.36036 15.8625L9.76988 13.4327L11.9926 12.5675Z" fill="#FED891"/>
<path id="Vector_31" d="M11.9926 12.5676L7.93625 11.3729C7.93625 11.3681 7.94105 11.3628 7.94105 11.3576C7.94585 11.3474 7.94585 11.3373 7.95105 11.3324C7.96104 11.3122 7.97104 11.2972 7.98104 11.2818C7.98584 11.2716 7.99104 11.2664 8.00104 11.2566C8.00623 11.2518 8.01103 11.2412 8.02103 11.2364C8.02583 11.2315 8.03623 11.2214 8.04103 11.2161C8.04583 11.2109 8.05582 11.206 8.06102 11.2007C8.07102 11.1959 8.08102 11.1853 8.09102 11.1805C8.09582 11.1756 8.10581 11.1703 8.11581 11.1703C8.13101 11.1655 8.14061 11.1602 8.1558 11.1549C8.1606 11.1549 8.1658 11.1501 8.1758 11.1501C8.1858 11.1452 8.2006 11.1452 8.21579 11.1399L10.6237 10.7858L11.9926 12.5676Z" fill="#FFF3D9"/>
<path id="Vector_32" d="M11.9926 12.5675L9.76986 13.438L8.02662 11.7169C8.00662 11.7015 7.99662 11.6817 7.98182 11.6614C7.97183 11.6412 7.95703 11.6209 7.95183 11.6006C7.94703 11.5905 7.94183 11.5804 7.94183 11.5703C7.93183 11.5399 7.92664 11.5046 7.92664 11.4742C7.92664 11.4641 7.92664 11.454 7.92664 11.4438C7.92664 11.4288 7.92664 11.4187 7.93183 11.4033C7.93183 11.3984 7.93663 11.3932 7.93663 11.383C7.93663 11.3782 7.94143 11.3729 7.94143 11.368L11.9926 12.5675Z" fill="#ECB76B"/>
</g>
</g>
<defs>
<linearGradient id="paint0_linear_31_226" x1="12.1692" y1="1.25432" x2="15.3271" y2="1.25432" gradientUnits="userSpaceOnUse">
<stop stop-color="#FEE998"/>
<stop offset="1" stop-color="#FCC15B"/>
</linearGradient>
<linearGradient id="paint1_linear_31_226" x1="5.14574" y1="3.70181" x2="8.33168" y2="1.06335" gradientUnits="userSpaceOnUse">
<stop stop-color="#FEE998"/>
<stop offset="1" stop-color="#FCC15B"/>
</linearGradient>
<linearGradient id="paint2_linear_31_226" x1="3.11644" y1="7.17935" x2="1.30351" y2="10.1187" gradientUnits="userSpaceOnUse">
<stop stop-color="#FCC15B"/>
<stop offset="1" stop-color="#FEE998"/>
</linearGradient>
<linearGradient id="paint3_linear_31_226" x1="2.2804" y1="17.7859" x2="5.39605" y2="19.8077" gradientUnits="userSpaceOnUse">
<stop stop-color="#FFC05F"/>
<stop offset="1" stop-color="#ED892B"/>
</linearGradient>
<linearGradient id="paint4_linear_31_226" x1="1.92911" y1="14.2772" x2="2.49394" y2="17.7933" gradientUnits="userSpaceOnUse">
<stop stop-color="#FCC15B"/>
<stop offset="1" stop-color="#FEE998"/>
</linearGradient>
<linearGradient id="paint5_linear_31_226" x1="8.41954" y1="22.7649" x2="11.4721" y2="23.4344" gradientUnits="userSpaceOnUse">
<stop stop-color="#FEAC3E"/>
<stop offset="1" stop-color="#F08223"/>
</linearGradient>
<linearGradient id="paint6_linear_31_226" x1="5.30425" y1="20.3253" x2="8.12848" y2="22.6057" gradientUnits="userSpaceOnUse">
<stop stop-color="#FFA135"/>
<stop offset="1" stop-color="#FEB431"/>
</linearGradient>
<linearGradient id="paint7_linear_31_226" x1="18.557" y1="20.3324" x2="15.7381" y2="22.727" gradientUnits="userSpaceOnUse">
<stop stop-color="#FFAA3D"/>
<stop offset="1" stop-color="#ED8B1C"/>
</linearGradient>
<linearGradient id="paint8_linear_31_226" x1="12.094" y1="22.9614" x2="15.6512" y2="22.7664" gradientUnits="userSpaceOnUse">
<stop stop-color="#FF962D"/>
<stop offset="1" stop-color="#E56005"/>
</linearGradient>
<linearGradient id="paint9_linear_31_226" x1="22.2385" y1="14.2242" x2="21.505" y2="17.7483" gradientUnits="userSpaceOnUse">
<stop stop-color="#FDBD41"/>
<stop offset="1" stop-color="#FEB334"/>
</linearGradient>
<linearGradient id="paint10_linear_31_226" x1="23.1755" y1="14.8454" x2="19.6681" y2="20.8406" gradientUnits="userSpaceOnUse">
<stop stop-color="#F6942F"/>
<stop offset="1" stop-color="#EA6F11"/>
</linearGradient>
<linearGradient id="paint11_linear_31_226" x1="20.7686" y1="7.288" x2="22.8765" y2="10.3706" gradientUnits="userSpaceOnUse">
<stop stop-color="#FDBD41"/>
<stop offset="1" stop-color="#FEB334"/>
</linearGradient>
<linearGradient id="paint12_linear_31_226" x1="22.0065" y1="14.0407" x2="22.8363" y2="10.4222" gradientUnits="userSpaceOnUse">
<stop stop-color="#FD9D24"/>
<stop offset="1" stop-color="#FF9515"/>
</linearGradient>
<linearGradient id="paint13_linear_31_226" x1="18.9819" y1="3.79607" x2="15.7667" y2="2.26557" gradientUnits="userSpaceOnUse">
<stop stop-color="#FCC15B"/>
<stop offset="1" stop-color="#FEE998"/>
</linearGradient>
<linearGradient id="paint14_linear_31_226" x1="18.9973" y1="3.5975" x2="20.5554" y2="7.01466" gradientUnits="userSpaceOnUse">
<stop stop-color="#FF9515"/>
<stop offset="1" stop-color="#FFBE41"/>
</linearGradient>
<radialGradient id="paint15_radial_31_226" cx="0" cy="0" r="1" gradientUnits="userSpaceOnUse" gradientTransform="translate(12.0007 12.3222) scale(8.39829 8.50991)">
<stop offset="0.8428" stop-color="#FAAA31"/>
<stop offset="1" stop-color="#F57E16"/>
</radialGradient>
<linearGradient id="paint16_linear_31_226" x1="12.0007" y1="3.05221" x2="12.0007" y2="21.5924" gradientUnits="userSpaceOnUse">
<stop offset="0.0226" stop-color="#FD9A18"/>
<stop offset="0.3764" stop-color="#FEC752"/>
<stop offset="1" stop-color="#FFA422"/>
</linearGradient>
<linearGradient id="paint17_linear_31_226" x1="12.0007" y1="1.83875" x2="12.0007" y2="22.744" gradientUnits="userSpaceOnUse">
<stop stop-color="#FFDB69"/>
<stop offset="0.1799" stop-color="#FEE7B0"/>
<stop offset="0.24" stop-color="#FEE9BA"/>
<stop offset="0.2592" stop-color="#FDECD0"/>
<stop offset="0.2953" stop-color="#FEDA92"/>
<stop offset="0.3254" stop-color="#FFCD64"/>
<stop offset="0.3405" stop-color="#FFC853"/>
<stop offset="0.7613" stop-color="#FF9114"/>
<stop offset="1" stop-color="#F57E16"/>
</linearGradient>
</defs>
</svg>
