<svg width="18" height="17" viewBox="0 0 18 17" fill="none" xmlns="http://www.w3.org/2000/svg">
<path d="M8.6936 6.95453V10.2464H13.3724C13.1669 11.305 12.5504 12.2014 11.6257 12.8041L14.4472 14.9446C16.0911 13.461 17.0395 11.2819 17.0395 8.69325C17.0395 8.09053 16.9842 7.51093 16.8814 6.95462L8.6936 6.95453Z" fill="#4285F4"/>
<path d="M3.82147 10.1179L3.18512 10.5941L0.932617 12.3096C2.36313 15.0836 5.29506 17 8.69349 17C11.0407 17 13.0087 16.2427 14.4471 14.9446L11.6256 12.8041C10.8511 13.3141 9.86314 13.6232 8.69349 13.6232C6.43314 13.6232 4.51267 12.1319 3.82503 10.1228L3.82147 10.1179Z" fill="#34A853"/>
<path d="M0.932531 4.69049C0.33981 5.83408 0 7.12455 0 8.49999C0 9.87542 0.33981 11.1659 0.932531 12.3095C0.932531 12.3172 3.82522 10.1149 3.82522 10.1149C3.65135 9.60494 3.54857 9.06406 3.54857 8.4999C3.54857 7.93573 3.65135 7.39486 3.82522 6.88486L0.932531 4.69049Z" fill="#FBBC05"/>
<path d="M8.69367 3.38455C9.97404 3.38455 11.1121 3.81726 12.021 4.65182L14.5105 2.21776C13.001 0.842326 11.041 0 8.69367 0C5.29524 0 2.36313 1.90863 0.932617 4.69046L3.82522 6.88501C4.51277 4.8759 6.43331 3.38455 8.69367 3.38455Z" fill="#EA4335"/>
</svg>
