<svg width="12" height="12" viewBox="0 0 12 12" fill="none" xmlns="http://www.w3.org/2000/svg">
<g id="pin-angle">
<path id="Vector" d="M7.50583 0.976562C7.37323 0.976562 7.23688 1.04581 7.14113 1.13746C6.36683 1.87886 6.12973 2.49886 6.41283 3.34816C5.75228 3.85446 5.33508 3.97871 4.51048 3.97871C3.38323 3.97871 2.64723 4.11461 2.14643 4.61506V4.63066C1.67783 5.09906 1.67783 5.84906 2.14643 6.31706L3.54653 7.72806L1.16098 10.1126C0.96573 10.3076 0.951181 10.6351 1.14643 10.8301C1.34173 11.0256 1.66993 11.0256 1.86523 10.8301L4.25963 8.43506L5.66208 9.83056C6.13073 10.2991 6.88093 10.2991 7.34958 9.83056H7.36523C7.86623 9.33006 8.00583 8.68856 8.00583 7.47256C8.00583 6.69956 8.16448 6.15406 8.64483 5.58006C9.56928 5.85106 10.1071 5.59156 10.8652 4.83371C10.959 4.73996 11.0058 4.60706 11.0058 4.47451C11.0058 4.29866 10.9614 4.02911 10.8496 3.69371C10.6694 3.15366 10.3593 2.61031 9.86523 2.11651C9.37113 1.62276 8.82743 1.31276 8.28708 1.13271C7.95148 1.02091 7.68178 0.976562 7.50583 0.976562ZM7.69948 2.00386C8.23068 2.10246 8.76553 2.45411 9.14643 2.83486C9.52738 3.21556 9.85183 3.68186 9.98608 4.29301C9.50883 4.75081 9.21693 4.78701 8.73963 4.53576C8.54923 4.43551 8.30798 4.47096 8.15583 4.62306C7.24533 5.53306 7.00583 6.35856 7.00583 7.47256C7.00583 8.44256 6.94878 8.80306 6.64643 9.12806C6.56108 9.22006 6.44333 9.20606 6.36523 9.12806L2.84958 5.61456C2.77148 5.53656 2.77388 5.43656 2.83683 5.36006C3.01543 5.14256 3.41293 4.97361 4.50583 4.97421C5.81233 4.97496 6.50688 4.63851 7.36523 3.83426C7.51738 3.68216 7.55518 3.44886 7.45893 3.25646C7.20183 2.74251 7.24193 2.47161 7.69948 2.00386Z" fill="#9D9D9D"/>
</g>
</svg>
