<svg width="18" height="22" viewBox="0 0 18 22" fill="none" xmlns="http://www.w3.org/2000/svg">
<path d="M1.5 13.5C1.5 9.35786 4.85787 6 9 6C13.1421 6 16.5 9.35786 16.5 13.5C16.5 17.6421 13.1421 21 9 21C4.85787 21 1.5 17.6421 1.5 13.5Z" stroke="#141B34" stroke-width="1.5"/>
<path d="M6 13.5C6 11.8431 7.29518 10.5 8.89286 10.5H9.10714C10.7048 10.5 12 11.8431 12 13.5C12 15.1569 10.7048 16.5 9.10714 16.5H8.89286C7.29518 16.5 6 15.1569 6 13.5Z" stroke="#141B34" stroke-width="1.5"/>
<path d="M10.5606 1L8 6M15.0005 1L12.1786 6.60217" stroke="#141B34" stroke-width="1.5" stroke-linecap="round"/>
<path d="M7.43994 1L9 3.59405M3 1L5.82144 6.5" stroke="#141B34" stroke-width="1.5" stroke-linecap="round"/>
</svg>
